<svg width="20" height="20" viewBox="0 0 20 20" fill="none" xmlns="http://www.w3.org/2000/svg">
<path d="M1.5 3.5C1.5 2.39543 2.39543 1.5 3.5 1.5H6.5C7.60457 1.5 8.5 2.39543 8.5 3.5V6.5C8.5 7.60457 7.60457 8.5 6.5 8.5H3.5C2.39543 8.5 1.5 7.60457 1.5 6.5V3.5Z" stroke="#050505" stroke-width="1.5" stroke-linejoin="round"/>
<path d="M11.5 3.5C11.5 2.39543 12.3954 1.5 13.5 1.5H16.5C17.6046 1.5 18.5 2.39543 18.5 3.5V6.5C18.5 7.60457 17.6046 8.5 16.5 8.5H13.5C12.3954 8.5 11.5 7.60457 11.5 6.5V3.5Z" stroke="#050505" stroke-width="1.5" stroke-linejoin="round"/>
<path d="M11.5 13.5C11.5 12.3954 12.3954 11.5 13.5 11.5H16.5C17.6046 11.5 18.5 12.3954 18.5 13.5V16.5C18.5 17.6046 17.6046 18.5 16.5 18.5H13.5C12.3954 18.5 11.5 17.6046 11.5 16.5V13.5Z" stroke="#050505" stroke-width="1.5" stroke-linejoin="round"/>
<path d="M1.5 13.5C1.5 12.3954 2.39543 11.5 3.5 11.5H6.5C7.60457 11.5 8.5 12.3954 8.5 13.5V16.5C8.5 17.6046 7.60457 18.5 6.5 18.5H3.5C2.39543 18.5 1.5 17.6046 1.5 16.5V13.5Z" stroke="#050505" stroke-width="1.5" stroke-linejoin="round"/>
</svg>
