<svg width="22" height="20" viewBox="0 0 22 20" fill="none" xmlns="http://www.w3.org/2000/svg">
<path d="M17.8232 2.16638C18.5502 2.89065 19 3.89279 19 5.00001C19 6.10722 18.5502 7.10937 17.8232 7.83363M4.17999 2.16638C3.45307 2.89065 3.00321 3.89279 3.00321 5.00001C3.00321 6.10722 3.45307 7.10937 4.17999 7.83363M20.2361 13C20.7111 13.5308 21 14.2317 21 15V16C21 16.7684 20.7111 17.4693 20.2361 18M1.76001 13C1.28495 13.5308 0.996094 14.2317 0.996094 15V16C0.996094 16.7684 1.28495 17.4693 1.76001 18M15 5C15 2.79086 13.2091 1 11 1C8.79086 1 7 2.79086 7 5C7 7.20914 8.79086 9 11 9C13.2091 9 15 7.20914 15 5ZM4 16V15C4 13.3431 5.34314 12 7 12H15C16.6568 12 18 13.3431 18 15V16C18 17.6569 16.6569 19 15 19H7C5.34314 19 4 17.6569 4 16Z" stroke="#363538" stroke-width="1.5" stroke-linecap="round" stroke-linejoin="round"/>
</svg>
