<svg width="21" height="21" viewBox="0 0 21 21" fill="none" xmlns="http://www.w3.org/2000/svg">
<path d="M9 19H4C2.34315 19 1 17.6569 1 16V6C1 4.34315 2.34315 3 4 3H16C17.6569 3 19 4.34315 19 6V8.5M6 5V1M14 5V1M6.01 8H6M6.01 11H6M6.01 14H6M10.01 11H10M10.01 8H10M14.01 8H14M16 13.5V15.3077L17 16M20 15.5C20 13.0147 17.9853 11 15.5 11C13.0147 11 11 13.0147 11 15.5C11 17.9853 13.0147 20 15.5 20C17.9853 20 20 17.9853 20 15.5Z" stroke="#363538" stroke-width="1.5" stroke-linecap="round" stroke-linejoin="round"/>
</svg>
